<svg xmlns="http://www.w3.org/2000/svg" viewBox="0 0 100 100" width="100" height="100" fill="#FFFFFF" fill-rule="evenodd" aria-label="Centred symbol"><path d="M48.02 11.88L53.47 12.38L56.44 14.36L59.9 20.79L58.91 25.74L54.46 32.18L78.22 32.18L80.2 33.17L82.67 36.63L82.67 41.58L79.21 45.05L68.32 49.01L62.87 52.48L66.83 69.31L69.8 77.23L69.8 82.18L66.34 86.63L61.39 86.63L59.41 85.64L49.5 69.8L48.02 70.3L43.07 80.2L37.62 86.63L31.68 86.63L28.22 82.18L28.22 79.21L29.21 78.22L31.19 67.33L33.17 63.37L33.17 60.4L35.15 56.44L35.15 51.49L17.82 44.06L15.35 40.59L16.34 35.64L20.79 32.18L44.55 32.18L45.05 31.68L41.58 29.21L39.11 25.74L39.11 18.81L44.55 12.38L47.52 12.38ZM49.01 16.83L51.49 17.33L53.96 19.8L53.96 23.76L50.5 27.23L46.53 26.24L44.06 23.76L45.05 18.81L46.53 17.33L48.51 17.33ZM21.29 37.62L76.24 37.13L77.72 38.61L77.23 40.1L58.42 48.02L56.93 50.5L64.85 80.2L63.37 81.68L60.89 79.21L52.97 64.36L48.51 60.89L40.1 73.27L37.13 80.2L34.65 81.68L34.16 77.23L38.12 65.35L38.12 62.38L41.09 53.47L41.09 49.5L33.66 45.05L22.77 41.09L21.29 38.61Z"></path></svg>