<svg xmlns="http://www.w3.org/2000/svg" viewBox="-24 -53.7 1041.6 317.4" width="1041.6" height="317.4" fill-rule="evenodd" aria-label="Centred">
  <title>Centred</title>
  <g transform="translate(0 -29.7) scale(2.6939)" fill="#2BA5B3">
    <path d="M48.02 11.88L53.47 12.38L56.44 14.36L59.9 20.79L58.91 25.74L54.46 32.18L78.22 32.18L80.2 33.17L82.67 36.63L82.67 41.58L79.21 45.05L68.32 49.01L62.87 52.48L66.83 69.31L69.8 77.23L69.8 82.18L66.34 86.63L61.39 86.63L59.41 85.64L49.5 69.8L48.02 70.3L43.07 80.2L37.62 86.63L31.68 86.63L28.22 82.18L28.22 79.21L29.21 78.22L31.19 67.33L33.17 63.37L33.17 60.4L35.15 56.44L35.15 51.49L17.82 44.06L15.35 40.59L16.34 35.64L20.79 32.18L44.55 32.18L45.05 31.68L41.58 29.21L39.11 25.74L39.11 18.81L44.55 12.38L47.52 12.38ZM49.01 16.83L51.49 17.33L53.96 19.8L53.96 23.76L50.5 27.23L46.53 26.24L44.06 23.76L45.05 18.81L46.53 17.33L48.51 17.33ZM21.29 37.62L76.24 37.13L77.72 38.61L77.23 40.1L58.42 48.02L56.93 50.5L64.85 80.2L63.37 81.68L60.89 79.21L52.97 64.36L48.51 60.89L40.1 73.27L37.13 80.2L34.65 81.68L34.16 77.23L38.12 65.35L38.12 62.38L41.09 53.47L41.09 49.5L33.66 45.05L22.77 41.09L21.29 38.61Z"></path>
  </g>
  <g transform="translate(242.09 0)" fill="#355A62">
    <path d="M736.5 30L744 29.5L746 30.5L750.5 35L750.5 39L751.5 40L751.5 167L750.5 168L750.5 172L748.5 175L745 177.5L737 177.5L731.5 173L730 164.5L720 173.5L706 179.5L695 180.5L694 179.5L689 179.5L688 178.5L685 178.5L684 177.5L679 176.5L669 170.5L660.5 162L660.5 161L657.5 158L652.5 148L650.5 138L649.5 137L649.5 133L648.5 132L648.5 117L649.5 116L649.5 112L650.5 111L652.5 101L658.5 90L670 78.5L678 73.5L680 73.5L684 71.5L687 71.5L691 69.5L703 69.5L711 72.5L714 72.5L726 79.5L730 83.5L730.5 37L732.5 33L736 30.5ZM82.5 70L98 69.5L99 70.5L103 70.5L104 71.5L109 71.5L110 72.5L115 73.5L123 78.5L127.5 85L127.5 91L122 97.5L116 97.5L112 95.5L109 92.5L101 89.5L97 89.5L96 88.5L88 88.5L87 89.5L83 89.5L71 95.5L64.5 103L60.5 110L59.5 119L58.5 120L58.5 129L59.5 130L60.5 139L65.5 148L73 155.5L79 158.5L86 159.5L87 160.5L100 160.5L101 159.5L104 159.5L110 156.5L115 152.5L123 152.5L127.5 157L128.5 164L127.5 166L120 172.5L109 177.5L105 177.5L104 178.5L100 178.5L99 179.5L93 179.5L92 180.5L80 179.5L72 176.5L69 176.5L57 169.5L46.5 158L41.5 148L39.5 138L38.5 137L38.5 132L37.5 131L37.5 118L38.5 117L39.5 108L40.5 107L41.5 102L47.5 91L55 82.5L56 82.5L63 76.5L75 71.5L82 70.5ZM184.5 70L196 69.5L197 70.5L202 70.5L206 72.5L209 72.5L215 76.5L220 78.5L233.5 93L238.5 103L239.5 109L240.5 110L241.5 122L240.5 123L240.5 125L234 130.5L161.5 131L163.5 139L168.5 148L178 156.5L189 160.5L204 160.5L214 156.5L220 151.5L225 149.5L231 150.5L234.5 154L235.5 156L235.5 161L232 166.5L224 172.5L216 176.5L210 177.5L206 179.5L199 179.5L198 180.5L186 179.5L185 178.5L181 178.5L180 177.5L172 175.5L166 172.5L158 166.5L150.5 158L145.5 149L144.5 143L142.5 139L142.5 135L141.5 134L141.5 116L142.5 115L142.5 111L148.5 95L153.5 88L162 79.5L172 73.5L184 70.5ZM312.5 70L324 69.5L325 70.5L335 72.5L339 74.5L346.5 82L350.5 89L351.5 95L352.5 96L352.5 100L353.5 101L353.5 111L354.5 112L354.5 167L353.5 168L353.5 172L351.5 175L348 177.5L340 177.5L335.5 174L333.5 170L333.5 108L332.5 107L332.5 104L329.5 97L324 91.5L320 89.5L309 88.5L308 89.5L303 89.5L291 96.5L287.5 101L284.5 107L284.5 114L283.5 115L283.5 171L282.5 173L277 177.5L270 177.5L268 176.5L263.5 171L263.5 79L269 72.5L278 72.5L282.5 77L285 86.5L290 80.5L291 80.5L298 74.5L302 73.5L305 71.5L312 70.5ZM507.5 70L515 69.5L521 72.5L524.5 76L524.5 78L525.5 79L524.5 85L522 88.5L518 90.5L513 90.5L506 87.5L502 87.5L501 88.5L495 89.5L492 92.5L491 92.5L483.5 101L479.5 112L479.5 167L478.5 168L478.5 172L476 175.5L472 177.5L465 177.5L460.5 174L458.5 170L458.5 80L460.5 76L463 73.5L468 72.5L469 71.5L470 72.5L473 72.5L476 74.5L478.5 78L480 88.5L481.5 85L490 76.5L497 72.5L499 72.5L503 70.5L507 70.5ZM575.5 70L587 69.5L588 70.5L593 70.5L594 71.5L602 73.5L612 79.5L620.5 88L625.5 95L629.5 103L630.5 110L631.5 111L631.5 119L632.5 121L630.5 126L625 130.5L552.5 131L553.5 137L558.5 147L566 154.5L576 159.5L579 159.5L580 160.5L595 160.5L605 156.5L611 151.5L616 149.5L622 150.5L625.5 154L626.5 156L626.5 161L618 170.5L613 172.5L607 176.5L604 176.5L597 179.5L590 179.5L589 180.5L577 179.5L576 178.5L572 178.5L568 176.5L565 176.5L557 172.5L550 167.5L541.5 158L536.5 149L535.5 144L533.5 141L533.5 136L532.5 135L532.5 116L533.5 115L533.5 110L539.5 95L543.5 89L553 79.5L563 73.5L565 73.5L572 70.5L575 70.5ZM191.5 89L199 89.5L208 93.5L217.5 104L218.5 109L219.5 110L219.5 113L165 112.5L164 113.5L162.5 112L166.5 102L173 94.5L181 90.5L191 89.5ZM582.5 89L590 89.5L593 91.5L595 91.5L599 93.5L606.5 101L609.5 107L610.5 113L556 112.5L555 113.5L553.5 112L554.5 108L558.5 100L565 93.5L576 89.5L582 89.5ZM694.5 89L704 88.5L705 89.5L711 90.5L717 93.5L724.5 101L725.5 104L728.5 108L728.5 110L730.5 114L731.5 129L730.5 130L729.5 139L725.5 147L722.5 150L722.5 151L721 151.5L720.5 153L715 157.5L707 160.5L695 160.5L684 156.5L673.5 145L669.5 134L669.5 126L668.5 124L669.5 123L669.5 115L670.5 114L670.5 111L672.5 108L672.5 106L676.5 100L682 94.5L689 90.5L694 89.5Z"></path>
  </g>
  <g transform="translate(242.09 0)" fill="#2BA5B3">
    <path d="M396.5 48L405 47.5L407 48.5L411.5 54L411.5 72L413 73.5L431 73.5L434.5 76L436.5 79L436.5 82L437.5 83L436.5 84L436.5 87L430 92.5L411.5 93L411.5 153L412.5 154L412.5 156L417 159.5L430 158.5L433 160.5L434.5 163L434.5 170L430 174.5L423 177.5L409 177.5L408 176.5L405 176.5L401 174.5L394.5 168L392.5 164L391.5 157L390.5 156L390.5 93L378 92.5L374 90.5L370.5 85L371.5 78L375 74.5L377 73.5L390.5 73L390.5 56L391.5 55L391.5 53L396 48.5Z"></path>
  </g>
</svg>